
<svg viewBox="8.187 3.72 22.331 22.33" width="22.331" height="22.33" xmlns="http://www.w3.org/2000/svg">
  <path d="M 8.187 22.948 L 10.513 21.398 L 12.839 22.948 L 8.187 26.05 L 8.187 22.948 Z M 30.517 6.823 L 28.191 8.373 L 25.865 6.823 L 30.517 3.72 L 30.517 6.823 Z M 30.517 18.606 L 19.352 26.05 L 8.187 18.606 L 21.446 9.768 L 23.772 11.319 L 13.072 18.452 L 19.585 22.794 L 22.608 20.778 L 20.282 19.227 L 25.865 15.504 L 30.517 18.606 Z M 8.187 11.165 L 19.353 3.723 L 30.518 11.165 L 17.259 20.003 L 14.933 18.452 L 25.633 11.319 L 19.12 6.978 L 16.096 8.994 L 18.422 10.544 L 12.839 14.267 L 8.187 11.165 Z" fill="#2360a5" transform="matrix(1, 0, 0, 1, 0, -8.881784197001252e-16)"/>
</svg>