<?xml version="1.0" encoding="utf-8"?>
<svg viewBox="19.871 20.243 470.2 469.2" width="470.2" height="469.2" xmlns="http://www.w3.org/2000/svg">
  <g transform="matrix(0.9999999999999999, 0, 0, 0.9999999999999999, 0, -8.881784197001252e-16)">
    <g>
      <rect x="31.468" y="33.453" width="382.546" height="89.296" style="stroke: rgba(0, 0, 0, 0); fill: rgb(255, 255, 255);"/>
      <rect x="95.401" y="386.674" width="382.546" height="89.296" style="stroke: rgba(0, 0, 0, 0); fill: rgb(255, 255, 255);"/>
      <rect x="96.458" y="60.136" width="317.555" height="341.332" style="stroke: rgba(0, 0, 0, 0); fill: rgb(255, 255, 255);"/>
    </g>
  </g>
  <path d="M 49.671 21.043 C 38.971 23.543 28.571 32.243 23.571 42.943 L 20.471 49.443 L 20.171 87.843 L 19.871 126.243 L 22.071 128.543 L 24.271 130.943 L 54.171 130.943 L 83.971 130.943 L 84.171 295.643 L 84.471 460.443 L 87.571 466.943 C 91.471 475.243 98.171 481.943 106.771 486.143 L 113.471 489.443 L 286.971 489.443 L 460.471 489.443 L 467.171 486.143 C 475.671 481.943 481.971 475.643 486.171 467.143 L 489.471 460.443 L 489.771 422.043 L 490.071 383.643 L 487.871 381.343 L 485.671 378.943 L 455.771 378.943 L 425.971 378.943 L 425.771 214.143 L 425.471 49.443 L 422.171 42.743 C 417.971 34.143 411.271 27.443 402.971 23.543 L 396.471 20.443 L 224.971 20.243 C 127.371 20.243 51.871 20.543 49.671 21.043 Z M 67.471 35.643 C 73.771 37.743 80.171 44.143 82.271 50.443 C 83.671 54.543 83.971 60.043 83.971 86.143 L 83.971 116.943 L 58.971 116.943 L 33.971 116.943 L 33.971 86.143 C 33.971 50.843 34.371 48.543 41.471 41.443 C 48.371 34.443 57.871 32.343 67.471 35.643 Z M 395.471 35.643 C 398.371 36.543 402.071 38.943 404.471 41.443 C 412.571 49.443 411.971 35.343 411.971 217.143 L 411.971 378.943 L 282.271 378.943 L 152.571 378.943 L 150.271 381.143 L 147.971 383.243 L 147.971 418.943 C 147.971 459.643 147.771 461.243 140.471 468.443 C 130.671 478.243 115.271 478.243 105.471 468.443 C 97.271 460.343 97.971 479.043 97.971 254.843 C 97.971 117.243 97.671 53.543 96.871 50.043 C 96.271 47.343 94.371 42.643 92.471 39.543 L 89.071 33.943 L 239.871 33.943 C 377.571 33.943 391.071 34.043 395.471 35.643 Z M 475.971 423.743 C 475.971 459.043 475.571 461.343 468.471 468.443 C 460.471 476.543 473.171 475.943 303.871 475.943 L 153.071 475.943 L 156.471 470.343 C 158.371 467.243 160.271 462.543 160.871 459.843 C 161.571 456.943 161.971 442.043 161.971 423.943 L 161.971 392.943 L 318.971 392.943 L 475.971 392.943 L 475.971 423.743 Z" transform="matrix(0.9999999999999999, 0, 0, 0.9999999999999999, 0, -8.881784197001252e-16)"/>
  <text style="font-family: Arial, sans-serif; font-size: 55px; white-space: pre;" x="143.928" y="242.143" transform="matrix(0.9999999999999999, 0, 0, 0.9999999999999999, 0, -8.881784197001252e-16)">BOLETO</text>
  <g transform="matrix(0.9999999999999999, 0, 0, 0.9999999999999999, 120.97161102294919, 251.17225646972656)" style="fill:#000000;">
    <rect y="4" width="4" height="100"/>
    <rect x="6" y="4" width="2" height="100"/>
    <rect x="12" y="4" width="2" height="100"/>
    <rect x="22" y="4" width="2" height="100"/>
    <rect x="28" y="4" width="2" height="100"/>
    <rect x="38" y="4" width="4" height="100"/>
    <rect x="44" y="4" width="2" height="100"/>
    <rect x="50" y="4" width="2" height="100"/>
    <rect x="60" y="4" width="4" height="100"/>
    <rect x="66" y="4" width="2" height="100"/>
    <rect x="72" y="4" width="4" height="100"/>
    <rect x="80" y="4" width="6" height="100"/>
    <rect x="88" y="4" width="2" height="100"/>
    <rect x="98" y="4" width="2" height="100"/>
    <rect x="102" y="4" width="4" height="100"/>
    <rect x="110" y="4" width="2" height="100"/>
    <rect x="118" y="4" width="8" height="100"/>
    <rect x="128" y="4" width="2" height="100"/>
    <rect x="132" y="4" width="8" height="100"/>
    <rect x="142" y="4" width="6" height="100"/>
    <rect x="150" y="4" width="2" height="100"/>
    <rect x="154" y="4" width="2" height="100"/>
    <rect x="160" y="4" width="4" height="100"/>
    <rect x="168" y="4" width="6" height="100"/>
    <rect x="176" y="4" width="2" height="100"/>
    <rect x="182" y="4" width="2" height="100"/>
    <rect x="192" y="4" width="4" height="100"/>
    <rect x="198" y="4" width="2" height="100"/>
    <rect x="204" y="4" width="2" height="100"/>
    <rect x="210" y="4" width="8" height="100"/>
    <rect x="220" y="4" width="4" height="100"/>
    <rect x="226" y="4" width="6" height="100"/>
    <rect x="238" y="4" width="2" height="100"/>
    <rect x="242" y="4" width="4" height="100"/>
    <rect x="252" y="4" width="6" height="100"/>
    <rect x="260" y="4" width="2" height="100"/>
    <rect x="264" y="4" width="4" height="100"/>
  </g>
  <text style="font-family: Arial; font-size: 90px; white-space: pre;" x="223.921" y="152.338" transform="matrix(0.9999999999999999, 0, 0, 0.9999999999999999, 0, -8.881784197001252e-16)">$</text>
</svg>