<?xml version="1.0" encoding="utf-8"?>
<svg viewBox="63.22 253.1931 1076.4866 704.837" width="1076.4866" height="704.837" xmlns="http://www.w3.org/2000/svg">
  <path fill="#D4F582" opacity="1.000000" stroke="none" d="M 334.223 599.055 C 343.966 572.389 353.827 545.77 363.402 519.042 C 368.204 505.636 372.651 502.041 386.216 502.039 C 415.267 502.032 444.319 502.248 473.367 501.907 C 482.055 501.803 490.991 500.518 495.217 490.713 C 501.127 477.008 494.134 463.775 479.265 463.444 C 444.281 462.665 409.188 461.699 374.299 463.736 C 352.719 464.998 337.598 479.177 329.97 500.715 C 319.781 529.478 309.348 558.151 298.72 588.433 C 289.19 616.909 279.957 643.819 270.694 671.493 C 267.319 681.314 263.646 690.261 260.761 699.468 C 258.979 705.152 256.172 707.286 250.241 707.36 C 217.395 707.768 184.552 708.53 151.713 709.33 C 125.52 709.967 99.331 710.762 73.148 711.667 C 69.727 711.786 66.344 712.974 63.22 714.354 C 96.536 766.971 129.542 818.924 162.713 870.763 C 164.551 873.636 167.769 875.576 171.066 877.602 C 179.92 875.153 188.055 873.049 198.102 870.45 C 193.845 883.126 190.397 893.394 186.97 904.48 C 189.558 910.626 191.662 916.26 194.787 921.215 C 201.889 932.483 207.179 944.172 206.006 958.03 C 212.326 941.534 218.774 925.088 224.926 908.526 C 230.244 894.212 234.827 879.592 240.613 865.488 C 242.192 861.64 246.433 857.741 250.312 856.283 C 297.164 838.669 345.081 823.677 390.89 803.6 C 433.937 784.732 474.818 760.644 516.595 738.737 C 518.7 737.633 520.254 735.421 522.728 733.453 C 523.395 728.769 523.395 724.36 523.395 719.005 C 516.61 715.903 509.915 712.324 503.021 711.857 C 481.555 710.41 460.006 710.243 438.497 709.381 C 425.348 708.854 412.214 707.964 397.28 707.308 C 389.992 707.977 384.492 709.165 379.011 709.073 C 354.967 708.671 330.929 707.915 306.888 707.247 C 303.577 707.156 300.27 706.858 294.961 706.532 C 300.024 693.48 304.477 682.005 309.002 669.718 C 317.458 645.62 325.841 622.337 334.223 599.055 Z" style="transform-origin: 293.307px 710.275px;" transform="matrix(-1, 0, 0, -1, 0.000061035156, 0)"/>
  <path fill="#D4F582" opacity="1.000000" stroke="none" d="M 1086.431 253.193 C 1060.707 284.609 1037.861 317.859 1026.063 357.672 C 1022.472 369.793 1020.7 382.482 1017.414 395.405 C 1016.735 417.547 1016.735 439.195 1016.735 461.853 C 1018.85 473.14 1019.783 483.868 1023.322 493.596 C 1031.053 514.861 1039.345 535.994 1049 556.387 C 1052.746 564.3 1059.744 572.185 1070.567 570.657 C 1083.948 568.767 1094.397 555.089 1082.89 538.608 C 1070.544 520.931 1062.811 501.34 1058.453 480.099 C 1049.275 435.365 1050.385 391.663 1069.653 349.545 C 1071.236 346.085 1072.594 342.518 1074.827 337.15 C 1073.589 355.413 1071.091 371.606 1071.673 387.68 C 1073.162 428.728 1081.326 468.224 1102.921 503.686 C 1107.958 511.96 1114.464 518.568 1125.025 516.656 C 1133.422 515.135 1139.488 509.106 1139.7 500.8 C 1139.864 494.254 1136.952 487.007 1133.666 481.094 C 1112.38 442.791 1106.163 401.981 1110.902 358.396 C 1114.401 326.217 1122.136 295.527 1133.739 264.709 C 1117.521 260.091 1101.975 256.643 1086.431 253.193 Z" style="transform-origin: 1078.22px 412.021px;" transform="matrix(-1, 0, 0, -1, 0.000244140624, 0.000061035156)"/>
  <path fill="#BEE86E" opacity="1.000000" stroke="none" d="M 777.63 861.52 C 778.873 846.849 773.583 835.161 766.481 823.893 C 763.357 818.937 761.252 813.303 757.982 806.944 C 752.201 797.482 747.121 789.055 742.041 780.626 C 739.464 778.254 736.245 776.314 734.407 773.441 C 701.236 721.602 668.23 669.649 634.582 616.399 C 627.126 604.749 620.281 594.423 612.888 583.644 C 583.339 540.191 554.337 497.189 525.337 454.188 C 496.321 424.651 462.102 425.381 427.117 438.369 C 411.77 444.065 398.049 454.384 382.941 463.827 C 377.354 479.964 381.706 491.558 392.28 502.836 C 410.845 522.645 428.34 543.535 445.867 564.344 C 453.98 573.977 461.11 584.484 469.402 594.723 C 479.412 605.678 488.705 616.507 498.415 627.907 C 501.487 630.777 504.474 632.776 506.747 635.422 C 542.227 676.725 577.719 718.018 612.955 759.538 C 623.407 771.851 633.083 784.858 643.112 797.549 C 666.122 824.539 689.104 851.552 712.15 878.508 C 722.366 890.456 735.49 895.869 750.447 892.352 C 765.419 888.831 774.788 878.317 777.63 861.52 Z" style="transform-origin: 579.154px 661.613px;" transform="matrix(-1, 0, 0, -1, 0, 0)"/>
  <path fill="#AFD755" opacity="1.000000" stroke="none" d="M 653.385 777.182 C 669.288 781.213 684.834 784.661 701.173 788.493 C 714.645 787.372 727.328 785.866 741.309 783.745 C 771.066 772.464 791.593 753.521 801.91 723.682 C 804.051 717.493 805.308 710.781 815.406 714.024 C 880.401 734.892 945.051 756.567 1004.346 791.93 C 1021.543 802.185 1038.233 813.288 1048.936 831.4 C 1061.469 831.512 1074 831.622 1087.454 830.883 C 1077.711 803.157 1056.63 785.529 1034.53 770.041 C 994.887 742.256 951.445 721.762 906.081 705.634 C 889.034 699.572 872.075 693.251 854.21 687.079 C 838.982 690.039 824.622 692.968 809.164 696.12 C 810.005 690.283 810.821 686.5 811.06 682.679 C 814.18 632.838 804.149 585.985 780.53 542.284 C 776.188 534.248 771.539 526.387 767.032 518.446 C 766.96 517.675 766.603 517.083 764.963 517.135 C 749.726 523.134 733.701 526.02 721.556 534.665 C 665.813 574.346 642.327 632.581 636.766 699.803 C 634.733 724.365 639.55 748.276 647.058 771.592 C 649.047 773.262 651.036 774.931 653.385 777.182" style="transform-origin: 861.876px 674.306px;" transform="matrix(-1, 0, 0, -1, -0.000122070313, 0)"/>
  <path fill="#D4F582" opacity="1.000000" stroke="none" d="M 516.131 551.497 C 533.129 557.699 550.088 564.02 567.135 570.082 C 612.499 586.21 655.941 606.704 695.584 634.489 C 717.684 649.977 738.766 667.605 749.476 695.223 C 779.954 693.994 810.39 692.076 840.819 690.024 C 849.806 689.417 858.771 688.434 868.678 687.503 C 859.582 674.69 849.906 661.684 839.455 649.37 C 804.219 607.851 768.726 566.558 733.246 525.255 C 730.974 522.609 727.986 520.61 724.05 517.837 C 714.841 518.375 706.896 519.26 698.99 520.422 C 662.854 525.743 626.655 530.673 590.625 536.674 C 565.67 540.83 540.955 546.503 516.131 551.497 Z" style="transform-origin: 692.404px 606.53px;" transform="matrix(-1, 0, 0, -1, 0, 0)"/>
  <path fill="#D4F582" opacity="1.000000" stroke="none" d="M 981.599 635.433 C 971.886 617.14 955.196 606.036 938 595.782 C 878.705 560.419 814.054 538.743 749.059 517.875 C 738.961 514.633 737.704 521.345 735.563 527.534 C 725.246 557.373 704.72 576.316 675.808 587.571 C 692.481 593.185 709.364 599.534 726.79 602.971 C 771.163 611.729 815.661 620.017 860.345 626.844 C 885.975 630.76 912.057 631.622 937.958 633.532 C 952.15 634.579 966.392 634.942 981.599 635.433 Z" style="transform-origin: 828.704px 576.232px;" transform="matrix(-1, 0, 0, -1, -0.000122070312, 0.000122070313)"/>
  <path fill="#AFD755" opacity="1.000000" stroke="none" d="M 288.21 740.249 C 316.23 783.166 345.232 826.167 375.302 868.955 C 379.642 867.728 382.871 866.013 386.189 865.81 C 412.891 864.177 439.593 862.209 466.324 861.53 C 512.31 860.362 558.316 860.051 604.314 859.381 C 613.544 832.473 622.776 805.563 631.992 777.798 C 608.797 771.939 585.732 766.249 562.407 762.13 C 537.305 757.697 511.997 754.39 486.704 751.232 C 460.315 747.937 433.895 744.476 407.385 742.794 C 378.542 740.964 349.582 741.035 320.671 740.411 C 310.181 740.184 299.683 740.348 288.21 740.249 Z" style="transform-origin: 460.101px 804.602px;" transform="matrix(-1, 0, 0, -1, 0.000061035156, 0.000122070312)"/>
  <path fill="#8CC846" opacity="1.000000" stroke="none" d="M 747.52 835.733 C 773.211 830.708 797.926 825.036 822.881 820.879 C 858.911 814.878 895.11 809.949 931.246 804.628 C 939.152 803.466 947.097 802.58 955.89 801.47 C 947.461 790.545 938.168 779.716 927.239 768.842 C 907.032 771.419 888.452 773.972 869.891 776.683 C 859.233 778.241 848.655 780.574 837.956 781.609 C 826.381 782.73 815.406 778.018 809.305 768.811 C 795.022 747.261 782.611 724.402 768.804 701.734 C 764.385 695.131 760.606 688.868 756.118 682.478 C 747.52 672.433 739.634 662.513 731.745 652.594 C 730.185 652.47 728.625 652.35 726.352 652.939 C 730.124 662.522 735.383 671.081 738.879 680.34 C 742.781 690.674 735.748 700.786 724.998 701.896 C 717.522 702.67 711.439 700.717 707.276 693.4 C 700.964 682.31 694.06 671.576 687.407 660.688 C 678.941 662.87 670.476 665.049 661.174 667.166 C 664.85 675.041 669.498 682.902 673.84 690.938 C 697.46 734.639 707.491 781.492 704.371 831.333 C 704.131 835.154 703.315 838.937 702.474 844.774 C 717.932 841.622 732.292 838.693 747.52 835.733 Z" style="transform-origin: 808.532px 748.633px;" transform="matrix(-1, 0, 0, -1, 0, 0)"/>
  <path fill="#8DC846" opacity="1.000000" stroke="none" d="M 1004.42 867.162 C 997.65 843.961 992.833 820.05 994.866 795.488 C 1000.427 728.266 1023.912 670.031 1079.656 630.35 C 1091.8 621.704 1107.826 618.818 1122.569 612.64 C 1111.936 598.523 1099.67 585.996 1083.117 580.343 C 1060.843 572.737 1040.8 579.103 1023.45 594.676 C 988.241 626.28 971.621 668.123 963.495 713.888 C 960.154 732.697 959.031 752.201 959.332 771.35 C 959.834 803.36 968.972 832.812 990.554 856.959 C 994.187 861.023 999.269 863.721 1004.42 867.162 Z" style="transform-origin: 1040.93px 722.148px;" transform="matrix(-1, 0, 0, -1, 0, 0)"/>
  <path fill="#AFD755" opacity="1.000000" stroke="none" d="M 690.543 779.359 C 703.711 801.687 716.122 824.546 730.404 846.096 C 736.506 855.303 747.481 860.015 759.055 858.894 C 769.755 857.859 780.332 855.526 790.99 853.968 C 809.551 851.257 828.131 848.704 847.621 846.001 C 840.965 835.807 833.835 825.3 825.721 815.668 C 808.195 794.858 790.7 773.969 772.135 754.16 C 761.561 742.881 757.209 731.287 762.148 715.496 C 746.68 715.96 731.214 717.3 714.797 719.594 C 713.845 732.035 713.838 743.52 713.832 755.006 C 713.822 774.373 709.574 778.814 690.543 779.359 Z" style="transform-origin: 769.082px 787.276px;" transform="matrix(-1, 0, 0, -1, 0, -0.000122070311)"/>
  <path fill="#BEE86E" opacity="1.000000" stroke="none" d="M 1034.454 915.471 C 1041.329 927.05 1048.234 937.784 1054.546 948.875 C 1058.709 956.191 1064.791 958.144 1072.268 957.371 C 1083.018 956.26 1090.051 946.148 1086.149 935.814 C 1082.652 926.555 1077.394 917.996 1072.84 908.362 C 1055.42 876.362 1038.098 845.117 1020.708 813.908 C 1013.637 801.217 1002.221 795.654 988.649 795.473 C 958.173 795.062 927.691 795.214 897.213 795.402 C 882.676 795.492 876.188 803.034 877.199 817.745 C 877.941 828.548 885.361 834.111 899.925 834.188 C 926.198 834.327 952.482 834.564 978.746 834.031 C 987.059 833.86 991.124 837.323 994.931 844.408 C 1007.656 868.078 1021.076 891.352 1034.454 915.471 Z" style="transform-origin: 982.168px 876.37px;" transform="matrix(-1, 0, 0, -1, 0, -0.000122070312)"/>
  <path fill="#BEE86E" opacity="1.000000" stroke="none" d="M 888.984 957.484 C 908.655 957.279 912.902 952.837 912.912 933.471 C 912.919 921.985 912.925 910.499 912.946 897.985 C 912.946 875.402 912.95 853.847 912.908 832.291 C 912.864 810.809 898.779 796.029 877.819 795.653 C 866.983 795.461 856.14 795.53 845.302 795.642 C 833.179 795.77 825.696 802.812 824.449 813.127 C 822.895 825.963 833.589 833.459 844.124 834.403 C 849.33 834.87 854.608 834.498 859.851 834.503 C 865.063 834.505 870.273 834.503 877.157 834.503 C 877.157 857.222 877.157 879.325 877.159 903.453 C 877.109 916.436 877.058 927.394 877.008 938.355 C 880.786 944.618 884.564 950.88 888.984 957.484 Z" style="transform-origin: 868.622px 876.508px;" transform="matrix(-1, 0, 0, -1, -0.000122070314, -0.000122070314)"/>
  <path fill="#AFD755" opacity="1.000000" stroke="none" d="M 176.068 743.34 C 166.889 766.509 158.506 789.791 151.036 813.899 C 187.348 815.446 222.75 816.06 258.142 817.084 C 261.405 817.177 264.599 819.885 267.824 821.38 C 281.507 808.773 279.079 787.573 261.655 779.539 C 233.757 766.677 205.165 755.401 176.068 743.34 Z" style="transform-origin: 213.831px 782.36px;" transform="matrix(-1, 0, 0, -1, 0, 0)"/>
  <path fill="#8DC846" opacity="1.000000" stroke="none" d="M 291.654 718.785 C 288.736 716.646 285.542 713.937 282.279 713.844 C 246.887 712.821 211.485 712.207 175.099 711.473 C 169.662 722.937 165.209 734.412 160.146 747.464 C 165.455 747.79 168.762 748.088 172.073 748.179 C 196.114 748.847 220.152 749.603 244.196 750.004 C 249.677 750.097 255.177 748.909 261.537 748.214 C 272.052 738.555 281.701 728.992 291.654 718.785 Z" style="transform-origin: 225.9px 730.741px;" transform="matrix(-1, 0, 0, -1, 0.000030517578, 0)"/>
  <path fill="#AFD755" opacity="1.000000" stroke="none" d="M 883.618 848.563 C 884.379 837.729 884.43 826.77 884.461 814.787 C 876.615 815.295 868.787 816.829 860.104 818.52 C 867.135 828.598 875.021 838.518 883.618 848.563 Z" style="transform-origin: 872.283px 831.675px;" transform="matrix(-1, 0, 0, -1, -0.000122070314, -0.000122070314)"/>
  <path fill="#8DC846" opacity="1.000000" stroke="none" d="M 544.353 707.535 C 498.387 707.437 452.382 707.748 406.396 708.917 C 379.665 709.595 352.963 711.563 326.261 713.196 C 322.943 713.4 319.714 715.115 315.921 716.795 C 322.245 727.787 329.091 738.112 336.271 749.073 C 340.003 749.015 343.386 747.827 346.807 747.708 C 372.989 746.803 399.178 746.008 425.371 745.371 C 458.211 744.572 491.054 743.809 523.899 743.401 C 529.83 743.327 532.637 741.193 534.42 735.509 C 537.305 726.303 540.978 717.355 544.353 707.535 Z" style="transform-origin: 430.137px 728.295px;" transform="matrix(-1, 0, 0, -1, 0, 0.000122070312)"/>
  <path d="M 618.077 811.664 L 649.326 790.841 L 680.572 811.664 L 618.077 853.334 L 618.077 811.664 Z M 918.063 595.034 L 886.817 615.859 L 855.568 595.034 L 918.063 553.35 L 918.063 595.034 Z M 918.063 753.33 L 768.072 853.334 L 618.077 753.33 L 796.203 634.601 L 827.452 655.435 L 683.703 751.265 L 771.202 809.594 L 811.812 782.509 L 780.562 761.675 L 855.568 711.66 L 918.063 753.33 Z M 618.077 653.37 L 768.082 553.391 L 918.077 653.37 L 739.953 772.099 L 708.702 751.265 L 852.453 655.435 L 764.952 597.12 L 724.326 624.199 L 755.578 645.025 L 680.572 695.04 L 618.077 653.37 Z" fill="#2360a5"/>
</svg>