<?xml version="1.0" encoding="utf-8"?>
<svg viewBox="49.9998 296.6592 1100.0002 769.2357" width="1100.0002" height="769.2357" xmlns="http://www.w3.org/2000/svg">
  <g style="" transform="matrix(-1, 0, 0, 1, 1200, 0)">
    <path fill="#E39DC1" d="M 1136.441 672.074 C 1111.359 716.533 1045.669 730.931 1012.8 686.822 C 980.45 643.411 1016.614 586.273 1068.781 593.56 C 1080.533 595.201 1087.072 610.339 1084.135 620.603 C 1080.568 633.068 1068.933 637.611 1057.092 635.958 C 1043.259 634.026 1042.65 653.901 1048.205 661.207 C 1058.576 674.849 1078.118 671.139 1089.568 661.166 C 1115.684 638.418 1106.703 596.105 1085.897 573.411 C 1063.224 548.68 1028.921 538.51 997.346 551.862 C 962.683 566.521 951.318 617.196 945.066 652.328 C 937.616 694.193 921.844 828.076 844.945 885.751 C 859.181 920.163 886.973 995.661 887.15 996.102 C 888.127 998.53 790.633 1052.769 735.255 1057.133 C 734.609 1057.184 701.34 984.366 690.601 955.717 C 563.453 1016.63 362.475 960.781 375.005 966.511 C 375.02 967.19 351.708 1029.851 340.234 1060.499 C 340.211 1060.56 340.178 1060.619 340.154 1060.679 C 339.038 1063.488 226.528 1036.616 189.038 995.568 C 188.175 994.623 187.437 993.36 187.066 992.022 C 186.737 990.832 186.695 989.582 187.153 988.438 C 202.01 951.281 212.977 924.824 227.833 887.667 C 204.036 870.041 149.846 799.454 142.448 789.883 C 139.355 785.881 135.936 778.652 131.899 775.67 C 129.482 773.885 125.926 773.398 122.22 773.361 C 118.082 773.32 113.753 773.845 110.578 773.843 C 97.333 773.834 84.087 773.833 70.842 773.83 C 65.117 773.829 59.391 773.825 53.666 773.825 C 51.681 773.825 50.002 772.142 50.002 770.161 C 50.005 700.856 50.005 631.551 50.005 562.245 C 50.005 560.26 51.688 558.581 53.669 558.581 C 54.423 558.581 55.178 558.581 55.932 558.581 C 64.029 558.581 72.127 558.581 80.225 558.581 C 85.989 558.581 91.752 558.581 97.515 558.581 C 107.101 558.581 111.379 558.238 118.69 551.74 C 123.939 547.075 128.447 540.952 133.069 535.667 C 151.797 514.254 169.576 492.013 186.317 469.012 C 194.779 457.385 202.981 445.569 210.914 433.576 C 214.375 428.344 216.444 423.439 217.718 418.472 C 219.73 410.626 219.743 402.619 220.006 392.897 C 220.841 362.004 221.675 331.111 222.51 300.219 C 222.577 297.75 224.684 296.397 226.742 296.704 C 227.45 296.809 228.153 297.106 228.765 297.629 C 253.464 318.735 278.163 339.842 302.862 360.948 C 314.368 370.781 325.541 381.78 337.731 390.745 C 348.72 398.827 359.009 396.718 372.219 396.382 C 551.364 391.819 720.816 393.827 722.406 393.959 C 852.456 404.772 938.994 489.431 940.708 540.205 C 955.669 527.005 976.062 511.668 995.288 506.255 C 1087.068 480.416 1186.853 582.717 1136.441 672.074 Z"/>
    <path d="M 399.311 463.027 C 498.831 460.696 598.352 458.365 697.872 456.034 C 707.288 455.813 707.32 441.082 697.872 441.378 C 607.128 444.225 534.125 448.116 399.311 448.371 C 389.892 448.389 389.861 463.248 399.311 463.027 Z" style=""/>
    <path fill="#DE66A4" d="M 70.84 773.829 C 65.115 773.828 59.389 773.824 53.664 773.824 C 51.679 773.824 50 772.141 50 770.16 C 50.003 700.855 50.003 631.55 50.003 562.244 C 50.003 560.259 51.686 558.58 53.667 558.58 C 54.421 558.58 55.176 558.58 55.93 558.58 C 103.722 619.149 100.859 700.87 70.84 773.829 Z M 295.403 421.594 C 273.779 378.346 254.11 335.107 226.739 296.702 C 224.681 296.396 222.574 297.748 222.507 300.217 C 221.673 331.11 220.838 362.003 220.003 392.895 C 219.74 402.618 219.727 410.624 217.715 418.47 C 243.811 420.765 270.161 423.397 295.403 421.594 Z M 189.034 995.566 C 226.524 1036.614 277.786 1061.513 333.164 1065.877 C 336.491 1066.139 339.035 1063.486 340.15 1060.677 C 298.266 1021.778 243.524 998.506 187.062 992.02 C 187.434 993.359 188.171 994.622 189.034 995.566 Z M 887.3 996.12 C 842.127 990.451 736.316 1055.745 736.935 1055.936 C 789.228 1072.055 891.035 1004.971 887.3 996.12 Z"/>
  </g>
  <path d="M 504.175 811.664 L 535.424 790.841 L 566.67 811.664 L 504.175 853.334 L 504.175 811.664 Z M 804.161 595.034 L 772.915 615.859 L 741.666 595.034 L 804.161 553.35 L 804.161 595.034 Z M 804.161 753.33 L 654.17 853.334 L 504.175 753.33 L 682.301 634.601 L 713.55 655.435 L 569.801 751.265 L 657.3 809.594 L 697.91 782.509 L 666.66 761.675 L 741.666 711.66 L 804.161 753.33 Z M 504.175 653.37 L 654.18 553.391 L 804.175 653.37 L 626.051 772.099 L 594.8 751.265 L 738.551 655.435 L 651.05 597.12 L 610.424 624.199 L 641.676 645.025 L 566.67 695.04 L 504.175 653.37 Z" fill="#2360a5" transform="matrix(1, 0, 0, 1, 1.1368683772161603e-13, 0)"/>
</svg>