<?xml version="1.0" encoding="utf-8"?>
<svg viewBox="35.75 4 16.5 21.5" width="16.5" height="21.5" xmlns="http://www.w3.org/2000/svg">
  <rect y="4" width="16.002" height="20" style="fill: rgb(216, 216, 216); fill-opacity: 0; paint-order: fill; stroke-width: 0.1px; stroke: rgb(198, 198, 198);" x="36"/>
  <rect x="35.75" y="24" width="16.5" height="1.5" style="fill: rgb(216, 216, 216); fill-opacity: 0; paint-order: fill; stroke-width: 0.1px; stroke: rgb(198, 198, 198);"/>
  <g transform="matrix(1, 0, 0, 1, 0.8059999942779541, -0.22200000286102295)">
    <rect x="35.194" y="14.222" width="4" height="9.974" style="fill: rgb(216, 216, 216); fill-opacity: 0; paint-order: fill; stroke-width: 0.1px; stroke: rgb(198, 198, 198);"/>
    <g transform="matrix(1, 0, 0, 1, 26.194204, 0.222478)">
      <rect x="10" y="15" width="0.452" height="0.903" style="paint-order: fill; stroke-width: 0.1px; stroke: rgb(198, 198, 198); fill: rgb(198, 198, 198);"/>
      <rect x="11.5" y="15" width="0.452" height="0.903" style="paint-order: fill; stroke-width: 0.1px; stroke: rgb(198, 198, 198); fill: rgb(198, 198, 198);"/>
    </g>
    <g transform="matrix(1, 0, 0, 1, 26.194204, 2.222478)">
      <rect x="10" y="15" width="0.452" height="0.903" style="paint-order: fill; stroke-width: 0.1px; stroke: rgb(198, 198, 198); fill: rgb(198, 198, 198);"/>
      <rect x="11.5" y="15" width="0.452" height="0.903" style="paint-order: fill; stroke-width: 0.1px; stroke: rgb(198, 198, 198); fill: rgb(198, 198, 198);"/>
    </g>
    <g transform="matrix(1, 0, 0, 1, 26.194204, 4.222478)">
      <rect x="10" y="15" width="0.452" height="0.903" style="paint-order: fill; stroke-width: 0.1px; stroke: rgb(198, 198, 198); fill: rgb(198, 198, 198);"/>
      <rect x="11.5" y="15" width="0.452" height="0.903" style="paint-order: fill; stroke-width: 0.1px; stroke: rgb(198, 198, 198); fill: rgb(198, 198, 198);"/>
    </g>
    <g transform="matrix(1, 0, 0, 1, 26.194204, 6.222478)">
      <rect x="10" y="15" width="0.452" height="0.903" style="paint-order: fill; stroke-width: 0.1px; stroke: rgb(198, 198, 198); fill: rgb(198, 198, 198);"/>
      <rect x="11.5" y="15" width="0.452" height="0.903" style="paint-order: fill; stroke-width: 0.1px; stroke: rgb(198, 198, 198); fill: rgb(198, 198, 198);"/>
    </g>
  </g>
  <g transform="matrix(1, 0, 0, 1, 0.8059999942779541, -0.22200000286102295)">
    <rect x="39.194" y="16.222" width="4" height="8" style="fill: rgb(216, 216, 216); fill-opacity: 0; paint-order: fill; stroke-width: 0.1px; stroke: rgb(198, 198, 198);"/>
    <g transform="matrix(1, 0, 0, 1, 30.194204, 2.222478)">
      <rect x="10" y="15" width="0.452" height="0.903" style="paint-order: fill; stroke-width: 0.1px; stroke: rgb(198, 198, 198); fill: rgb(198, 198, 198);"/>
      <rect x="11.5" y="15" width="0.452" height="0.903" style="paint-order: fill; stroke-width: 0.1px; stroke: rgb(198, 198, 198); fill: rgb(198, 198, 198);"/>
    </g>
    <g transform="matrix(1, 0, 0, 1, 30.194204, 4.222478)">
      <rect x="10" y="15" width="0.452" height="0.903" style="paint-order: fill; stroke-width: 0.1px; stroke: rgb(198, 198, 198); fill: rgb(198, 198, 198);"/>
      <rect x="11.5" y="15" width="0.452" height="0.903" style="paint-order: fill; stroke-width: 0.1px; stroke: rgb(198, 198, 198); fill: rgb(198, 198, 198);"/>
    </g>
    <g transform="matrix(1, 0, 0, 1, 30.194204, 6.222478)">
      <rect x="10" y="15" width="0.452" height="0.903" style="paint-order: fill; stroke-width: 0.1px; stroke: rgb(198, 198, 198); fill: rgb(198, 198, 198);"/>
      <rect x="11.5" y="15" width="0.452" height="0.903" style="paint-order: fill; stroke-width: 0.1px; stroke: rgb(198, 198, 198); fill: rgb(198, 198, 198);"/>
    </g>
  </g>
  <g transform="matrix(1, 0, 0, 1, 0.8059999942779541, -0.22200000286102295)">
    <rect x="43.194" y="14.222" width="4" height="10" style="fill: rgb(216, 216, 216); fill-opacity: 0; paint-order: fill; stroke-width: 0.1px; stroke: rgb(198, 198, 198);"/>
    <g transform="matrix(1, 0, 0, 1, 34.194202, 0.222478)">
      <rect x="10" y="15" width="0.452" height="0.903" style="paint-order: fill; stroke-width: 0.1px; stroke: rgb(198, 198, 198); fill: rgb(198, 198, 198);"/>
      <rect x="11.5" y="15" width="0.452" height="0.903" style="paint-order: fill; stroke-width: 0.1px; stroke: rgb(198, 198, 198); fill: rgb(198, 198, 198);"/>
    </g>
    <g transform="matrix(1, 0, 0, 1, 34.194202, 2.222478)">
      <rect x="10" y="15" width="0.452" height="0.903" style="paint-order: fill; stroke-width: 0.1px; stroke: rgb(198, 198, 198); fill: rgb(198, 198, 198);"/>
      <rect x="11.5" y="15" width="0.452" height="0.903" style="paint-order: fill; stroke-width: 0.1px; stroke: rgb(198, 198, 198); fill: rgb(198, 198, 198);"/>
    </g>
    <g transform="matrix(1, 0, 0, 1, 34.194202, 4.222478)">
      <rect x="10" y="15" width="0.452" height="0.903" style="paint-order: fill; stroke-width: 0.1px; stroke: rgb(198, 198, 198); fill: rgb(198, 198, 198);"/>
      <rect x="11.5" y="15" width="0.452" height="0.903" style="paint-order: fill; stroke-width: 0.1px; stroke: rgb(198, 198, 198); fill: rgb(198, 198, 198);"/>
    </g>
    <g transform="matrix(1, 0, 0, 1, 34.194202, 6.222478)">
      <rect x="10" y="15" width="0.452" height="0.903" style="paint-order: fill; stroke-width: 0.1px; stroke: rgb(198, 198, 198); fill: rgb(198, 198, 198);"/>
      <rect x="11.5" y="15" width="0.452" height="0.903" style="paint-order: fill; stroke-width: 0.1px; stroke: rgb(198, 198, 198); fill: rgb(198, 198, 198);"/>
    </g>
  </g>
  <path style="fill: rgb(216, 216, 216); stroke-width: 0.1px; fill-opacity: 0; stroke: rgb(198, 198, 198);" d="M 37.235 8.933 C 37.504 9.336 38.025 9.035 38.441 9.174 C 38.705 9.262 39.042 9.174 39.315 9.264 C 39.79 9.423 40.413 9.355 40.942 9.355 C 41.073 9.355 41.382 9.397 41.454 9.325 C 41.549 9.23 42.003 9.291 42.117 9.234 C 42.21 9.188 42.501 9.272 42.569 9.204 C 42.666 9.107 43.112 8.907 43.112 8.692 C 43.112 8.418 43.017 8.21 42.75 8.21 C 42.706 8.21 42.534 8.235 42.509 8.21 C 42.359 8.06 42.148 8.15 41.967 8.059 C 41.613 7.882 40.956 7.968 40.55 7.968 C 40.486 7.968 40.606 7.818 40.671 7.818 C 40.763 7.818 40.904 7.705 40.972 7.637 C 41.175 7.434 40.58 7.064 40.52 7.004 C 40.497 6.981 40.368 7.064 40.309 7.064 C 40.068 7.064 39.679 7.199 39.465 7.306 C 39.252 7.412 38.672 7.547 38.441 7.547 C 38.363 7.547 38.103 7.583 38.049 7.637 C 37.944 7.742 37.657 7.7 37.657 7.848 C 37.657 7.917 37.39 8.192 37.235 8.27 C 37.128 8.323 36.644 8.258 36.572 8.33 C 36.358 8.544 36.295 8.873 36 8.873"/>
</svg>