<?xml version="1.0" encoding="utf-8"?>
<svg viewBox="54.75 4 16.5 21.5" width="16.5" height="21.5" xmlns="http://www.w3.org/2000/svg">
  <rect y="4" width="16.002" height="20" style="fill: rgb(216, 216, 216); fill-opacity: 0; paint-order: fill; stroke-width: 0.1px; stroke: rgb(198, 198, 198);" x="55"/>
  <rect x="54.75" y="24" width="16.5" height="1.5" style="fill: rgb(216, 216, 216); fill-opacity: 0; paint-order: fill; stroke-width: 0.1px; stroke: rgb(198, 198, 198);"/>
  <g transform="matrix(1, 0, 0, 1, 1.1519999504089355, 0)">
    <rect x="57.848" y="16" width="4" height="8" style="fill: rgb(216, 216, 216); fill-opacity: 0; paint-order: fill; stroke-width: 0.1px; stroke: rgb(198, 198, 198);"/>
    <g transform="matrix(1, 0, 0, 1, 48.847633, 1.999543)">
      <rect x="10" y="15" width="0.452" height="0.903" style="paint-order: fill; stroke-width: 0.1px; stroke: rgb(198, 198, 198); fill: rgb(198, 198, 198);"/>
      <rect x="11.5" y="15" width="0.452" height="0.903" style="paint-order: fill; stroke-width: 0.1px; stroke: rgb(198, 198, 198); fill: rgb(198, 198, 198);"/>
    </g>
    <g transform="matrix(1, 0, 0, 1, 48.847633, 3.999543)">
      <rect x="10" y="15" width="0.452" height="0.903" style="paint-order: fill; stroke-width: 0.1px; stroke: rgb(198, 198, 198); fill: rgb(198, 198, 198);"/>
      <rect x="11.5" y="15" width="0.452" height="0.903" style="paint-order: fill; stroke-width: 0.1px; stroke: rgb(198, 198, 198); fill: rgb(198, 198, 198);"/>
    </g>
    <g transform="matrix(1, 0, 0, 1, 48.847633, 5.999543)">
      <rect x="10" y="15" width="0.452" height="0.903" style="paint-order: fill; stroke-width: 0.1px; stroke: rgb(198, 198, 198); fill: rgb(198, 198, 198);"/>
      <rect x="11.5" y="15" width="0.452" height="0.903" style="paint-order: fill; stroke-width: 0.1px; stroke: rgb(198, 198, 198); fill: rgb(198, 198, 198);"/>
    </g>
  </g>
  <g transform="matrix(1, 0, 0, 1, 1.1519999504089355, 0)">
    <rect x="61.848" y="14" width="4" height="10" style="fill: rgb(216, 216, 216); fill-opacity: 0; paint-order: fill; stroke-width: 0.1px; stroke: rgb(198, 198, 198);"/>
    <g transform="matrix(1, 0, 0, 1, 52.847633, -0.000458)">
      <rect x="10" y="15" width="0.452" height="0.903" style="paint-order: fill; stroke-width: 0.1px; stroke: rgb(198, 198, 198); fill: rgb(198, 198, 198);"/>
      <rect x="11.5" y="15" width="0.452" height="0.903" style="paint-order: fill; stroke-width: 0.1px; stroke: rgb(198, 198, 198); fill: rgb(198, 198, 198);"/>
    </g>
    <g transform="matrix(1, 0, 0, 1, 52.847633, 1.999543)">
      <rect x="10" y="15" width="0.452" height="0.903" style="paint-order: fill; stroke-width: 0.1px; stroke: rgb(198, 198, 198); fill: rgb(198, 198, 198);"/>
      <rect x="11.5" y="15" width="0.452" height="0.903" style="paint-order: fill; stroke-width: 0.1px; stroke: rgb(198, 198, 198); fill: rgb(198, 198, 198);"/>
    </g>
    <g transform="matrix(1, 0, 0, 1, 52.847633, 3.999543)">
      <rect x="10" y="15" width="0.452" height="0.903" style="paint-order: fill; stroke-width: 0.1px; stroke: rgb(198, 198, 198); fill: rgb(198, 198, 198);"/>
      <rect x="11.5" y="15" width="0.452" height="0.903" style="paint-order: fill; stroke-width: 0.1px; stroke: rgb(198, 198, 198); fill: rgb(198, 198, 198);"/>
    </g>
    <g transform="matrix(1, 0, 0, 1, 52.847633, 5.999543)">
      <rect x="10" y="15" width="0.452" height="0.903" style="paint-order: fill; stroke-width: 0.1px; stroke: rgb(198, 198, 198); fill: rgb(198, 198, 198);"/>
      <rect x="11.5" y="15" width="0.452" height="0.903" style="paint-order: fill; stroke-width: 0.1px; stroke: rgb(198, 198, 198); fill: rgb(198, 198, 198);"/>
    </g>
  </g>
  <path style="fill: rgb(216, 216, 216); stroke-width: 0.1px; fill-opacity: 0; stroke: rgb(198, 198, 198);" d="M 70.356 8.5 C 70.312 8.515 69.362 8.523 69.362 8.56 C 69.362 8.646 69 9.133 69 9.133"/>
  <g transform="matrix(1, 0, 0, 1, 1, 0)">
    <rect x="66" y="12.015" width="4" height="12" style="fill: rgb(216, 216, 216); fill-opacity: 0; paint-order: fill; stroke-width: 0.1px; stroke: rgb(198, 198, 198);"/>
    <g transform="matrix(1, 0, 0, 1, 56.993492, -1.98512)">
      <rect x="10" y="15" width="0.452" height="0.903" style="paint-order: fill; stroke-width: 0.1px; stroke: rgb(198, 198, 198); fill: rgb(198, 198, 198);"/>
      <rect x="11.5" y="15" width="0.452" height="0.903" style="paint-order: fill; stroke-width: 0.1px; stroke: rgb(198, 198, 198); fill: rgb(198, 198, 198);"/>
    </g>
    <g transform="matrix(1, 0, 0, 1, 57.000488, 0.01488)">
      <rect x="10" y="15" width="0.452" height="0.903" style="paint-order: fill; stroke-width: 0.1px; stroke: rgb(198, 198, 198); fill: rgb(198, 198, 198);"/>
      <rect x="11.5" y="15" width="0.452" height="0.903" style="paint-order: fill; stroke-width: 0.1px; stroke: rgb(198, 198, 198); fill: rgb(198, 198, 198);"/>
    </g>
    <g transform="matrix(1, 0, 0, 1, 57.000488, 2.01488)">
      <rect x="10" y="15" width="0.452" height="0.903" style="paint-order: fill; stroke-width: 0.1px; stroke: rgb(198, 198, 198); fill: rgb(198, 198, 198);"/>
      <rect x="11.5" y="15" width="0.452" height="0.903" style="paint-order: fill; stroke-width: 0.1px; stroke: rgb(198, 198, 198); fill: rgb(198, 198, 198);"/>
    </g>
    <g transform="matrix(1, 0, 0, 1, 57.000488, 4.01488)">
      <rect x="10" y="15" width="0.452" height="0.903" style="paint-order: fill; stroke-width: 0.1px; stroke: rgb(198, 198, 198); fill: rgb(198, 198, 198);"/>
      <rect x="11.5" y="15" width="0.452" height="0.903" style="paint-order: fill; stroke-width: 0.1px; stroke: rgb(198, 198, 198); fill: rgb(198, 198, 198);"/>
    </g>
    <g transform="matrix(1, 0, 0, 1, 57.000488, 6.01488)">
      <rect x="10" y="15" width="0.452" height="0.903" style="paint-order: fill; stroke-width: 0.1px; stroke: rgb(198, 198, 198); fill: rgb(198, 198, 198);"/>
      <rect x="11.5" y="15" width="0.452" height="0.903" style="paint-order: fill; stroke-width: 0.1px; stroke: rgb(198, 198, 198); fill: rgb(198, 198, 198);"/>
    </g>
  </g>
</svg>